<?xml version="1.0" standalone="no"?>
<!DOCTYPE svg PUBLIC "-//W3C//DTD SVG 20010904//EN"
 "http://www.w3.org/TR/2001/REC-SVG-20010904/DTD/svg10.dtd">
<svg version="1.0" xmlns="http://www.w3.org/2000/svg"
 width="1800.000000pt" height="1800.000000pt" viewBox="0 0 1800.000000 1800.000000"
 preserveAspectRatio="xMidYMid meet">
<g transform="translate(0.000000,1800.000000) scale(0.100000,-0.100000)"
fill="#4400e9" stroke="none">
<path d="M8870 14763 c-41 -14 -88 -31 -105 -38 -86 -38 -104 -45 -118 -45 -9
0 -18 -4 -22 -9 -3 -5 -19 -12 -36 -16 -17 -4 -42 -13 -57 -21 -15 -8 -35 -14
-44 -14 -9 0 -19 -4 -23 -9 -3 -5 -19 -12 -36 -16 -17 -4 -42 -13 -57 -21 -15
-8 -34 -14 -43 -14 -8 0 -19 -4 -25 -9 -5 -5 -25 -14 -44 -19 -19 -6 -60 -20
-90 -32 -30 -12 -66 -24 -80 -27 -14 -3 -30 -9 -35 -14 -10 -8 -42 -20 -155
-58 -36 -13 -79 -29 -97 -37 -17 -8 -37 -14 -45 -14 -8 0 -18 -4 -23 -8 -6 -5
-39 -19 -75 -31 -36 -13 -77 -29 -92 -37 -14 -8 -35 -14 -46 -14 -12 0 -23 -4
-27 -9 -3 -5 -19 -12 -36 -16 -17 -4 -42 -13 -57 -21 -15 -8 -34 -14 -42 -14
-8 0 -24 -7 -34 -15 -11 -8 -28 -15 -38 -15 -9 0 -32 -6 -50 -14 -18 -8 -49
-21 -70 -30 -20 -9 -41 -16 -47 -16 -6 0 -19 -4 -29 -10 -21 -12 -98 -40 -132
-47 -14 -3 -34 -12 -45 -19 -11 -8 -29 -14 -41 -14 -12 0 -27 -7 -34 -15 -7
-8 -24 -15 -39 -15 -14 0 -35 -7 -45 -15 -11 -8 -27 -15 -37 -15 -9 0 -30 -7
-45 -15 -16 -8 -36 -15 -44 -15 -8 0 -24 -7 -34 -15 -11 -8 -30 -15 -42 -15
-13 0 -25 -4 -29 -9 -3 -5 -19 -12 -36 -16 -17 -4 -42 -13 -57 -21 -15 -8 -32
-14 -38 -14 -7 0 -25 -7 -40 -15 -16 -8 -36 -15 -44 -15 -8 0 -24 -7 -34 -15
-11 -8 -30 -15 -42 -15 -13 0 -25 -4 -29 -9 -3 -5 -19 -12 -36 -16 -17 -4 -42
-13 -57 -21 -15 -8 -33 -14 -40 -14 -7 0 -20 -4 -30 -10 -21 -12 -98 -40 -132
-47 -14 -3 -34 -12 -45 -19 -11 -8 -29 -14 -40 -14 -11 0 -29 -7 -39 -15 -11
-8 -30 -15 -42 -15 -13 0 -25 -4 -29 -9 -3 -5 -19 -12 -36 -16 -17 -4 -42 -13
-57 -21 -15 -8 -33 -14 -40 -14 -26 0 -62 -32 -62 -56 0 -25 55 -74 84 -74 10
0 34 -7 54 -16 21 -8 51 -21 67 -28 30 -13 75 -31 158 -62 45 -17 89 -35 140
-58 17 -8 43 -18 56 -21 13 -4 38 -16 56 -26 l33 -20 -4 -2062 c-2 -1134 0
-2474 4 -2977 l7 -915 33 -65 c44 -87 92 -143 160 -188 125 -83 57 -76 807
-83 847 -8 2755 -8 3630 0 l670 6 65 33 c82 42 142 91 182 150 17 26 35 49 40
50 4 2 8 11 8 21 0 9 6 25 14 36 7 11 16 45 20 75 3 30 9 686 12 1457 l6 1402
-129 3 c-70 2 -131 1 -134 -2 -4 -3 -9 -633 -12 -1400 -4 -1250 -6 -1399 -20
-1431 -20 -46 -68 -95 -116 -117 -34 -16 -187 -17 -2406 -16 -2037 0 -2377 2
-2419 15 -55 16 -108 63 -134 117 -16 35 -17 201 -18 2852 0 1548 1 2841 4
2873 4 55 5 57 33 57 16 0 29 -4 29 -10 0 -5 9 -10 20 -10 19 0 66 -17 123
-46 16 -8 33 -14 39 -14 9 0 32 -9 113 -45 17 -7 59 -23 95 -36 36 -12 69 -26
75 -31 5 -4 16 -8 25 -8 8 0 28 -7 44 -15 15 -8 36 -15 45 -15 10 0 26 -7 37
-15 10 -8 26 -15 34 -15 17 0 127 -43 137 -54 3 -3 13 -6 22 -6 9 0 29 -7 45
-15 15 -8 36 -15 45 -15 10 0 26 -7 37 -15 10 -8 26 -15 34 -15 8 0 28 -7 44
-15 15 -8 33 -15 38 -15 11 0 66 -23 111 -46 16 -8 36 -14 45 -14 9 0 30 -7
46 -15 15 -8 33 -15 38 -15 11 0 66 -23 111 -46 16 -8 36 -14 45 -14 9 0 29
-6 43 -14 15 -7 55 -24 90 -36 35 -12 69 -25 74 -29 6 -4 43 -18 83 -30 40
-13 75 -27 78 -32 3 -5 13 -9 22 -9 9 0 30 -7 46 -15 15 -8 36 -15 45 -15 10
0 26 -7 37 -15 10 -8 26 -15 34 -15 8 0 28 -7 44 -15 15 -8 33 -15 38 -15 6 0
26 -7 46 -16 21 -9 52 -22 70 -30 18 -8 37 -14 43 -14 10 0 91 -33 121 -50 10
-6 23 -10 30 -10 7 -1 31 -9 53 -20 22 -11 47 -19 55 -19 8 0 33 8 55 19 22
11 45 19 51 20 7 0 25 7 40 15 16 8 36 15 44 15 8 0 24 7 34 15 11 8 29 15 40
15 12 0 30 7 40 15 11 8 28 15 37 15 10 0 30 6 46 14 15 8 48 22 73 32 25 9
59 23 77 30 17 8 37 14 45 14 7 0 22 7 32 15 11 8 29 15 40 15 12 0 30 7 40
15 11 8 28 15 37 15 10 0 30 6 46 14 15 8 48 22 73 32 25 9 59 23 77 30 17 8
37 14 45 14 7 0 22 7 32 15 11 8 30 15 42 15 13 0 25 4 28 9 3 5 18 12 33 15
16 4 42 13 58 20 17 8 48 21 70 29 62 23 127 48 162 63 17 8 35 14 41 14 5 0
23 7 38 15 16 8 36 15 44 15 8 0 24 7 34 15 11 8 28 15 37 15 10 0 30 7 46 15
15 8 66 29 113 46 47 17 97 38 112 45 14 8 33 14 41 14 8 0 28 7 43 15 16 8
36 15 45 15 8 0 19 4 25 8 5 4 36 18 69 31 97 37 138 53 172 67 17 8 38 14 46
14 9 0 18 4 21 9 3 5 38 19 78 32 40 12 78 26 83 30 21 15 100 38 107 31 6 -6
13 -886 9 -979 -1 -6 -21 -26 -45 -43 -57 -41 -100 -123 -93 -177 7 -59 28
-104 69 -148 47 -50 54 -70 34 -100 -9 -13 -16 -32 -16 -40 0 -9 -6 -26 -12
-38 -21 -37 -62 -192 -78 -292 -6 -33 -13 -67 -16 -75 -8 -20 -34 -235 -41
-337 -3 -53 -1 -86 6 -95 6 -7 20 -25 31 -39 11 -15 45 -39 77 -55 52 -27 65
-29 162 -28 120 1 153 13 230 80 l43 39 -1 110 c-1 61 -6 124 -11 140 -5 17
-14 68 -20 115 -12 103 -33 215 -49 253 -6 16 -11 41 -11 57 0 16 -4 31 -9 34
-5 3 -12 22 -16 42 -3 20 -12 50 -20 68 -7 17 -20 47 -29 68 -9 20 -16 38 -16
41 0 2 19 24 43 48 58 58 77 100 77 166 0 46 -6 63 -36 108 -19 30 -43 57 -53
60 -10 3 -26 14 -35 24 -15 16 -17 69 -17 534 l-1 516 27 25 c16 15 38 26 50
26 11 0 30 7 41 15 10 8 27 15 36 15 10 0 34 7 55 16 66 29 97 42 138 57 104
38 203 77 242 93 17 8 36 14 42 14 6 0 26 8 46 17 30 14 35 22 35 50 0 29 -5
35 -37 49 -21 9 -51 22 -66 30 -16 8 -35 14 -44 14 -8 0 -31 7 -51 16 -21 9
-52 22 -70 30 -18 8 -40 14 -50 14 -9 0 -26 7 -36 15 -11 8 -27 15 -35 15 -9
0 -28 6 -43 14 -15 8 -40 17 -57 21 -17 4 -33 11 -36 16 -4 5 -14 9 -23 9 -9
0 -29 6 -44 14 -15 8 -40 17 -57 21 -17 4 -33 11 -36 16 -4 5 -16 9 -29 9 -12
0 -31 7 -42 15 -10 8 -26 15 -34 15 -8 0 -28 7 -44 15 -15 8 -33 15 -38 15 -6
0 -24 6 -41 14 -18 7 -61 24 -97 36 -36 13 -69 27 -74 32 -6 4 -17 8 -25 8 -9
0 -29 7 -45 15 -15 8 -36 15 -45 15 -10 0 -26 7 -37 15 -10 8 -28 15 -40 15
-11 0 -29 7 -40 15 -10 8 -28 15 -39 15 -11 0 -29 6 -40 14 -11 7 -31 16 -45
19 -25 5 -99 31 -135 46 -11 5 -40 16 -65 26 -25 9 -59 23 -75 30 -17 7 -45
16 -62 19 -18 4 -35 12 -38 17 -4 5 -14 9 -23 9 -9 0 -29 6 -44 14 -15 8 -40
17 -57 21 -17 4 -33 11 -36 16 -4 5 -14 9 -23 9 -9 0 -29 6 -44 14 -15 8 -40
17 -57 21 -17 4 -33 11 -36 16 -4 5 -14 9 -23 9 -9 0 -29 6 -44 14 -15 8 -40
17 -57 21 -17 4 -33 11 -36 16 -4 5 -14 9 -23 9 -9 0 -29 6 -44 14 -15 8 -40
17 -57 21 -17 4 -33 11 -36 16 -4 5 -16 9 -29 9 -12 0 -31 7 -42 15 -10 8 -28
15 -40 15 -11 0 -29 7 -40 15 -10 8 -28 15 -39 15 -11 0 -29 6 -40 14 -11 7
-31 16 -45 19 -32 7 -111 35 -130 46 -9 5 -30 12 -48 15 -17 4 -34 12 -37 17
-4 5 -13 9 -22 9 -8 0 -29 6 -46 14 -35 15 -100 40 -162 63 -22 8 -53 21 -70
28 -16 8 -41 16 -55 20 -14 3 -34 10 -45 15 -87 37 -142 38 -245 3z"/>
<path d="M7127 12573 c-9 -21 -21 -63 -27 -93 -5 -30 -17 -86 -25 -125 -37
-170 -46 -214 -55 -273 -5 -34 -14 -79 -19 -100 -17 -61 -31 -273 -21 -316 8
-36 50 -85 74 -86 4 0 45 -22 91 -50 46 -27 85 -50 89 -50 3 0 34 -17 68 -38
35 -20 83 -47 108 -59 332 -157 337 -159 368 -168 12 -3 22 -11 22 -16 0 -5 8
-9 18 -9 9 0 30 -7 46 -15 15 -8 34 -15 41 -15 8 0 20 -6 27 -12 7 -7 38 -21
68 -32 30 -10 74 -27 97 -37 23 -10 48 -19 55 -19 8 0 18 -4 24 -8 5 -5 43
-19 84 -32 41 -12 80 -26 85 -30 6 -4 26 -11 45 -15 19 -4 41 -11 50 -15 8 -4
41 -15 73 -24 31 -8 81 -22 110 -31 96 -28 141 -37 265 -53 105 -14 138 -14
225 -3 56 7 125 19 152 27 28 9 75 22 105 31 30 8 63 19 72 24 10 5 34 13 55
18 41 10 90 27 140 48 17 7 40 13 51 13 12 0 23 4 27 9 3 5 19 12 36 16 17 4
42 13 57 21 15 8 32 14 39 14 7 0 29 7 50 16 41 18 50 22 133 55 30 12 83 35
118 50 34 16 64 29 67 29 11 0 328 152 335 161 3 4 16 10 30 14 14 4 27 11 30
15 3 3 32 20 65 37 153 76 294 163 329 202 15 17 17 33 13 108 -5 90 -19 193
-38 273 -6 25 -15 72 -20 105 -10 74 -49 260 -80 375 -23 88 -45 114 -78 93
-9 -6 -32 -14 -51 -18 -19 -4 -41 -11 -50 -16 -19 -11 -98 -39 -130 -46 -14
-3 -34 -12 -45 -19 -11 -8 -27 -14 -36 -14 -10 0 -32 -8 -51 -17 -18 -9 -45
-22 -60 -30 -14 -7 -33 -13 -41 -13 -9 0 -28 -6 -44 -14 -15 -8 -80 -36 -143
-61 -128 -52 -172 -72 -212 -92 -14 -7 -34 -13 -45 -13 -10 0 -27 -7 -37 -15
-11 -8 -28 -15 -38 -15 -10 0 -18 -4 -18 -9 0 -5 -12 -12 -27 -15 -16 -4 -41
-13 -58 -21 -16 -7 -66 -28 -110 -45 -44 -17 -93 -37 -110 -44 -16 -8 -52 -21
-80 -31 -27 -9 -59 -21 -70 -26 -28 -12 -106 -39 -130 -45 -11 -3 -29 -10 -40
-15 -73 -32 -150 -50 -193 -46 -45 4 -207 56 -244 77 -10 6 -25 10 -34 10 -9
0 -32 7 -52 16 -21 9 -52 22 -70 30 -18 8 -40 14 -48 14 -9 0 -28 6 -42 13
-15 8 -42 21 -60 30 -19 9 -41 17 -51 17 -9 0 -26 7 -37 15 -10 8 -27 15 -37
15 -11 0 -31 6 -45 13 -15 8 -42 21 -60 30 -19 9 -38 17 -43 17 -9 0 -27 7
-124 50 -26 11 -69 29 -180 74 -132 54 -137 57 -168 72 -16 8 -36 14 -46 14
-9 0 -26 7 -37 15 -10 8 -28 15 -40 15 -11 0 -29 7 -40 15 -10 8 -26 15 -34
15 -8 0 -27 6 -42 14 -15 8 -40 17 -57 21 -17 4 -33 11 -36 16 -4 5 -14 9 -23
9 -9 0 -29 6 -44 14 -15 8 -40 17 -57 21 -17 4 -33 11 -36 16 -4 5 -16 9 -29
9 -17 0 -27 -10 -39 -37z"/>
<path d="M7954 9876 c-106 -105 -362 -346 -400 -377 -41 -32 -50 -35 -68 -16
-53 51 -201 167 -214 167 -12 0 -152 -148 -152 -160 0 -5 12 -18 28 -29 35
-27 106 -87 151 -128 20 -18 39 -33 43 -33 4 0 15 -8 25 -18 38 -39 134 -112
148 -112 8 0 36 21 62 48 27 26 100 97 164 157 322 307 429 411 429 422 0 11
-82 89 -129 122 l-26 18 -61 -61z"/>
<path d="M8665 9427 c-3 -7 -4 -67 -3 -133 l3 -119 1165 -3 c641 -1 1175 0
1187 3 20 5 21 10 22 129 1 91 -2 125 -11 129 -7 2 -541 5 -1186 6 -983 2
-1173 0 -1177 -12z"/>
<path d="M7899 8547 c-257 -247 -362 -342 -380 -345 -12 -2 -40 12 -67 35 -46
37 -59 48 -132 112 -19 17 -40 31 -46 31 -9 0 -145 -143 -152 -161 -4 -9 15
-28 74 -75 91 -74 140 -115 178 -149 6 -5 34 -28 61 -50 28 -22 52 -43 53 -47
10 -22 48 -2 105 55 36 34 176 170 312 302 137 132 254 246 262 254 12 12 6
20 -38 60 -29 25 -64 56 -77 69 -14 12 -28 22 -31 22 -3 0 -58 -51 -122 -113z"/>
<path d="M8665 8147 c-3 -12 -4 -74 -3 -137 l3 -115 1185 0 1185 0 3 129 c2
97 -1 131 -10 138 -7 4 -541 8 -1185 8 l-1173 0 -5 -23z"/>
<path d="M9990 5898 c2 -436 5 -398 -24 -398 -13 0 -27 7 -30 17 -6 14 -8 14
-22 -3 -14 -18 -15 -17 -9 14 5 25 3 32 -9 32 -9 0 -16 -5 -16 -11 0 -5 -5 -7
-11 -3 -8 4 -8 9 0 17 15 15 14 27 -4 27 -8 0 -15 5 -15 10 0 6 -10 15 -22 21
-13 5 -39 19 -58 29 -19 11 -52 19 -72 20 -28 0 -36 4 -32 14 7 19 -16 25
-106 26 -205 4 -255 1 -275 -14 -11 -9 -28 -16 -38 -16 -9 0 -34 -9 -54 -20
-21 -11 -43 -20 -50 -20 -7 0 -13 -6 -13 -14 0 -9 -7 -12 -20 -9 -14 4 -20 0
-20 -11 0 -9 -5 -16 -10 -16 -13 0 -110 -95 -110 -108 0 -6 5 -12 12 -14 9 -3
9 -6 0 -12 -7 -4 -12 -2 -12 3 0 6 -7 11 -15 11 -8 0 -15 -7 -15 -15 0 -7 -7
-18 -17 -23 -12 -7 -14 -17 -10 -42 6 -28 5 -31 -8 -20 -12 10 -16 9 -21 -6
-3 -11 -10 -27 -15 -36 -5 -10 -9 -23 -9 -28 0 -6 -9 -32 -21 -57 -17 -37 -20
-57 -14 -96 5 -43 4 -49 -8 -38 -22 18 -27 -14 -26 -184 0 -112 4 -160 16
-190 8 -22 15 -58 14 -81 -1 -26 4 -46 14 -54 8 -7 15 -23 15 -35 0 -12 7 -28
15 -35 8 -7 15 -21 15 -31 0 -10 5 -21 11 -24 5 -4 14 -18 19 -31 13 -34 102
-142 118 -143 6 -1 12 -8 12 -16 0 -8 6 -15 13 -15 6 0 26 -13 42 -28 32 -30
89 -62 111 -62 7 0 19 -6 26 -14 8 -7 29 -16 48 -19 19 -3 60 -13 90 -21 68
-20 163 -20 215 0 22 9 56 15 76 14 21 0 41 6 49 15 7 8 21 15 31 15 10 0 21
5 24 11 4 5 18 14 31 19 34 13 30 28 -8 33 -18 2 -11 3 15 1 36 -2 49 1 54 12
7 18 62 74 73 74 4 0 10 9 13 21 4 13 12 20 24 17 16 -3 18 -16 21 -110 l3
-107 225 2 226 2 1 1035 1 1035 -228 3 -227 2 1 -322z m-345 -309 c10 -16 -1
-22 -26 -14 -17 6 -19 9 -8 16 19 12 26 11 34 -2z m-430 -9 c-3 -5 -13 -10
-21 -10 -8 0 -14 5 -14 10 0 6 9 10 21 10 11 0 17 -4 14 -10z m855 -26 c0 -8
-4 -14 -10 -14 -5 0 -10 9 -10 21 0 11 5 17 10 14 6 -3 10 -13 10 -21z m-960
-88 c0 -8 -4 -18 -10 -21 -5 -3 -10 3 -10 14 0 12 5 21 10 21 6 0 10 -6 10
-14z m-150 -51 c0 -8 -4 -15 -10 -15 -5 0 -10 7 -10 15 0 8 5 15 10 15 6 0 10
-7 10 -15z m83 -20 c-3 -8 -9 -15 -14 -15 -10 0 -12 24 -3 33 11 11 24 -3 17
-18z m417 -5 c-10 -19 -40 -28 -40 -12 0 13 23 32 37 32 11 0 11 -5 3 -20z
m268 -67 c7 -7 24 -13 38 -13 14 0 27 -7 30 -15 4 -8 13 -15 20 -15 8 0 17 -7
20 -15 4 -8 12 -15 20 -15 8 0 14 -5 14 -10 0 -6 14 -24 30 -40 17 -16 30 -33
30 -38 0 -5 7 -15 15 -22 8 -7 17 -27 21 -46 3 -19 10 -37 15 -40 5 -3 9 -63
9 -133 0 -102 -3 -131 -15 -141 -8 -7 -15 -22 -15 -33 0 -11 -8 -29 -17 -39
-14 -16 -15 -23 -5 -38 11 -18 9 -19 -10 -17 -17 1 -23 -3 -22 -15 1 -10 -4
-18 -11 -18 -6 0 -24 -11 -39 -25 -15 -14 -31 -25 -35 -25 -5 0 -11 -7 -15
-15 -3 -8 -14 -15 -23 -15 -10 0 -29 -7 -41 -16 -16 -11 -49 -15 -121 -16
-109 0 -163 17 -214 68 -22 21 -29 24 -47 14 -25 -13 -51 -2 -26 12 23 13 20
23 -14 58 -17 17 -36 51 -42 76 -10 37 -15 43 -31 38 -14 -5 -17 -3 -11 7 4 7
9 74 12 148 3 97 8 138 18 148 8 8 14 21 14 29 0 57 148 204 206 204 32 0 40
18 12 29 -15 6 20 7 97 4 80 -4 124 -11 133 -20z m282 -102 c0 -23 -16 -36
-25 -21 -9 14 1 40 15 40 5 0 10 -9 10 -19z m-840 -503 c0 -13 -4 -29 -9 -37
-13 -20 -24 4 -17 35 8 30 26 32 26 2z m837 -13 c8 -22 -6 -33 -17 -15 -13 20
-12 30 0 30 6 0 13 -7 17 -15z m-737 -146 c0 -12 -27 -11 -35 1 -11 17 5 32
21 19 8 -6 14 -15 14 -20z m740 6 c0 -8 -4 -15 -9 -15 -13 0 -22 16 -14 24 11
11 23 6 23 -9z m-1080 -25 c0 -5 -7 -10 -15 -10 -8 0 -15 5 -15 10 0 6 7 10
15 10 8 0 15 -4 15 -10z m30 -37 c0 -5 -5 -15 -10 -23 -8 -12 -10 -11 -10 8 0
12 5 22 10 22 6 0 10 -3 10 -7z m930 -19 c0 -8 -4 -14 -10 -14 -5 0 -10 9 -10
21 0 11 5 17 10 14 6 -3 10 -13 10 -21z m76 -61 c-11 -11 -17 4 -9 23 7 18 8
18 11 1 2 -10 1 -21 -2 -24z m-441 -3 c8 -12 -40 -24 -62 -16 -15 6 -15 8 -3
16 20 13 57 13 65 0z m504 -22 c0 -27 -2 -29 -8 -13 -5 11 -6 26 -4 33 8 21
13 13 12 -20z"/>
<path d="M11747 6134 c-3 -3 -52 -7 -110 -7 -63 -1 -110 -7 -118 -14 -8 -6
-32 -13 -53 -15 -44 -3 -60 -24 -24 -31 13 -2 -2 -2 -33 0 -42 3 -58 1 -68
-11 -8 -9 -21 -16 -31 -16 -10 0 -23 -7 -30 -15 -7 -8 -21 -15 -32 -15 -10 0
-21 -7 -24 -15 -4 -8 -13 -15 -20 -15 -8 0 -17 -6 -20 -14 -3 -8 -15 -16 -26
-19 -14 -4 -19 -11 -14 -22 4 -13 1 -15 -14 -10 -12 4 -26 -1 -39 -14 -23 -23
-27 -41 -10 -41 5 0 7 -5 4 -10 -5 -8 -11 -8 -20 0 -9 8 -22 1 -49 -26 -20
-20 -35 -43 -32 -50 3 -9 -2 -14 -13 -14 -10 0 -22 -8 -25 -17 -9 -24 -31 -62
-45 -76 -6 -6 -11 -21 -11 -34 0 -13 -4 -23 -10 -23 -5 0 -10 -6 -10 -13 0 -7
-9 -21 -21 -31 -17 -14 -20 -24 -15 -51 5 -27 3 -33 -14 -38 -16 -4 -20 -13
-20 -45 0 -22 -7 -53 -15 -68 -12 -23 -15 -68 -14 -209 0 -99 4 -201 10 -227
5 -27 13 -68 17 -92 5 -25 13 -51 19 -58 6 -7 13 -24 15 -38 2 -15 9 -25 18
-24 12 1 15 -7 12 -31 -2 -20 2 -36 12 -44 9 -8 16 -18 16 -24 0 -6 7 -17 15
-26 43 -48 50 -57 50 -71 0 -8 8 -14 17 -14 10 1 14 -4 11 -12 -4 -12 129
-148 165 -168 9 -5 21 -15 25 -23 4 -7 15 -13 22 -13 8 0 15 -4 15 -9 0 -5 21
-19 48 -31 26 -13 54 -26 62 -31 8 -5 22 -12 30 -15 8 -3 30 -12 48 -20 18 -8
43 -14 55 -14 13 0 27 -4 33 -10 5 -5 39 -14 74 -19 36 -6 94 -15 130 -21 47
-8 91 -8 155 0 50 6 110 13 135 16 73 8 90 14 90 30 0 12 7 14 30 9 21 -5 39
-2 55 9 13 9 33 16 43 16 11 0 25 7 32 15 7 8 20 15 30 15 10 0 23 7 30 15 7
8 17 15 22 15 33 0 240 184 231 207 -4 10 0 14 13 11 12 -2 20 4 22 17 2 11
10 24 18 28 8 4 14 15 14 22 0 8 5 15 10 15 6 0 15 10 20 23 6 12 14 30 20 40
5 9 15 25 20 35 6 9 13 24 16 32 3 8 12 27 20 42 8 14 14 35 14 46 0 11 7 33
15 48 8 16 15 47 15 70 0 22 6 46 13 52 9 10 12 62 12 192 0 130 -3 182 -12
191 -7 7 -13 34 -13 60 0 29 -6 51 -15 59 -8 7 -15 27 -15 46 0 23 -6 37 -20
44 -11 6 -18 15 -15 20 4 6 -1 22 -9 37 -8 16 -17 37 -21 48 -6 19 -7 19 -19
-4 -9 -17 -15 -20 -21 -11 -4 6 -2 17 4 23 15 15 14 44 -1 54 -7 4 -30 34 -52
65 -37 56 -71 90 -150 153 -21 17 -43 35 -50 40 -26 23 -78 46 -90 42 -8 -3
-13 1 -12 11 1 13 -7 17 -31 17 -20 0 -33 5 -33 12 0 7 -12 16 -27 19 -16 4
-38 14 -50 22 -16 9 -35 12 -63 7 -33 -6 -39 -4 -34 9 4 11 -3 16 -28 20 -54
8 -255 16 -261 10z m628 -212 c0 -18 -20 -15 -23 4 -3 10 1 15 10 12 7 -3 13
-10 13 -16z m14 -71 c7 -5 12 -14 9 -21 -2 -7 -10 -4 -22 9 -19 21 -12 28 13
12z m102 -24 c-1 -12 -15 -9 -19 4 -3 6 1 10 8 8 6 -3 11 -8 11 -12z m-171 -7
c0 -5 -6 -10 -14 -10 -8 0 -18 5 -21 10 -3 6 3 10 14 10 12 0 21 -4 21 -10z
m210 -36 c0 -8 5 -14 12 -14 6 0 8 -3 5 -6 -9 -10 -37 16 -37 33 0 8 5 11 10
8 6 -3 10 -13 10 -21z m-330 -44 c0 -5 -7 -10 -15 -10 -8 0 -15 5 -15 10 0 6
7 10 15 10 8 0 15 -4 15 -10z m-246 -20 c5 -5 23 -10 38 -10 16 0 31 -6 34
-14 3 -8 19 -19 35 -25 16 -5 29 -15 29 -20 0 -6 5 -11 12 -11 16 0 78 -61 78
-77 0 -7 7 -13 15 -13 8 0 15 -7 15 -15 0 -8 4 -15 9 -15 11 0 51 -66 51 -83
0 -7 9 -23 20 -37 11 -14 20 -39 20 -56 0 -17 6 -44 14 -60 24 -52 -3 -375
-35 -409 -5 -5 -9 -16 -9 -25 0 -8 -16 -40 -36 -70 -31 -48 -34 -56 -23 -77 7
-13 9 -26 5 -30 -9 -9 -27 18 -20 29 13 21 -16 4 -43 -24 -37 -41 -82 -78 -93
-78 -4 0 -13 -7 -20 -15 -7 -8 -22 -15 -34 -15 -12 0 -31 -7 -42 -15 -10 -8
-34 -15 -51 -15 -18 0 -69 -7 -113 -16 -59 -12 -84 -13 -94 -5 -7 6 -35 14
-62 17 -44 5 -94 22 -134 46 -8 5 -23 11 -32 14 -10 4 -18 10 -18 14 0 5 -9
11 -19 15 -20 6 -93 75 -105 98 -18 34 -35 60 -43 66 -15 11 -43 72 -43 94 -1
12 -7 33 -15 47 -11 19 -14 67 -14 200 0 133 3 181 14 200 8 14 14 42 15 63 0
20 4 37 9 37 5 0 13 10 16 22 17 51 143 198 171 198 8 0 14 4 14 9 0 5 10 11
22 13 28 4 36 28 9 28 -12 0 -21 5 -21 10 0 6 6 10 14 10 8 0 18 -4 21 -10 9
-15 47 -12 71 4 11 8 33 16 49 18 58 8 308 -1 319 -12z m-534 -15 c0 -8 -4
-15 -10 -15 -5 0 -10 7 -10 15 0 8 5 15 10 15 6 0 10 -7 10 -15z m705 -5 c-3
-5 -13 -10 -21 -10 -8 0 -14 5 -14 10 0 6 9 10 21 10 11 0 17 -4 14 -10z
m-765 -86 c0 -16 -16 -19 -25 -4 -8 13 4 32 16 25 5 -4 9 -13 9 -21z m1172
-49 c0 -5 -5 -11 -11 -13 -6 -2 -11 4 -11 13 0 9 5 15 11 13 6 -2 11 -8 11
-13z m-1362 -412 c-1 -24 -2 -26 -11 -10 -5 9 -7 22 -4 27 10 17 15 11 15 -17z
m-50 -138 c0 -8 -4 -15 -10 -15 -5 0 -10 7 -10 15 0 8 5 15 10 15 6 0 10 -7
10 -15z m77 -62 c-3 -10 -5 -2 -5 17 0 19 2 27 5 18 2 -10 2 -26 0 -35z m97
-219 c7 -19 -2 -37 -15 -29 -12 8 -12 45 0 45 5 0 12 -7 15 -16z m1324 -58 c3
-12 -1 -17 -10 -14 -7 3 -15 13 -16 22 -3 12 1 17 10 14 7 -3 15 -13 16 -22z
m-1693 -16 c3 -5 -3 -10 -15 -10 -12 0 -18 5 -15 10 3 6 10 10 15 10 5 0 12
-4 15 -10z m1613 -15 c13 -28 1 -33 -22 -9 -20 19 -21 34 -3 34 8 0 19 -11 25
-25z m-48 -174 c13 -25 13 -31 -3 -31 -14 0 -39 35 -30 44 11 11 22 6 33 -13z
m-1224 -27 c-4 -12 -10 -14 -17 -7 -5 5 -7 17 -3 27 4 12 10 14 17 7 5 -5 7
-17 3 -27z m1079 -14 c11 -17 -5 -32 -21 -19 -8 6 -14 15 -14 20 0 12 27 11
35 -1z m84 -43 c-19 -18 -37 -32 -41 -29 -16 7 -7 28 20 44 46 27 57 20 21
-15z m-178 -60 c-1 -12 -15 -9 -19 4 -3 6 1 10 8 8 6 -3 11 -8 11 -12z m-636
-57 c4 -6 -6 -10 -22 -10 -22 0 -25 2 -13 10 19 12 27 12 35 0z m537 -12 c-8
-8 -17 -8 -34 0 -22 10 -21 11 12 11 26 1 31 -2 22 -11z m-494 -59 c-18 -12
-48 -11 -48 0 0 11 30 19 48 13 11 -4 11 -6 0 -13z"/>
<path d="M13648 6135 c-3 -3 -34 -8 -69 -10 -35 -3 -68 -10 -73 -15 -6 -6 -20
-10 -32 -10 -33 0 -54 -10 -54 -26 0 -7 -6 -11 -14 -8 -12 5 -44 -9 -119 -53
-58 -33 -177 -173 -177 -207 0 -8 -7 -16 -15 -20 -10 -3 -15 -19 -15 -44 0
-21 -7 -47 -15 -58 -20 -27 -20 -188 0 -228 8 -15 15 -38 15 -50 0 -30 42
-116 57 -116 7 0 10 -7 7 -15 -4 -8 1 -17 10 -21 9 -3 16 -11 16 -18 1 -15 48
-49 59 -42 5 4 7 -3 4 -14 -4 -13 0 -20 10 -20 8 0 17 -7 21 -15 3 -8 14 -15
24 -15 11 0 25 -7 32 -15 7 -8 18 -15 25 -15 7 0 18 -7 25 -15 7 -8 23 -15 35
-15 12 0 28 -7 35 -15 7 -8 23 -15 35 -15 13 0 36 -6 52 -14 31 -16 128 -46
148 -46 7 0 18 -7 25 -15 7 -9 29 -15 51 -15 22 0 39 -4 39 -9 0 -5 10 -12 23
-16 92 -26 208 -106 226 -156 8 -23 15 -30 27 -25 14 5 15 1 9 -31 -15 -86
-38 -135 -86 -184 l-48 -49 -126 0 -127 0 -41 33 c-58 45 -77 65 -77 81 0 7
-7 19 -15 26 -8 7 -15 25 -15 41 0 27 -12 44 -23 33 -8 -8 -407 -7 -439 1 -27
7 -28 6 -28 -31 1 -22 7 -50 15 -64 8 -14 14 -37 15 -51 0 -14 9 -34 20 -44
11 -10 20 -26 20 -37 0 -10 7 -18 16 -18 11 0 14 -6 9 -21 -7 -22 27 -69 51
-69 6 0 11 -8 10 -17 0 -11 6 -18 16 -17 9 1 14 -4 12 -11 -6 -14 48 -45 77
-45 12 0 16 -6 12 -20 -4 -14 0 -20 10 -20 9 0 37 -11 63 -25 26 -14 54 -25
63 -25 9 -1 34 -9 56 -20 22 -11 59 -19 82 -20 23 0 54 -5 70 -11 43 -17 240
-13 291 5 28 10 59 13 87 9 36 -4 46 -2 51 10 3 9 21 19 40 23 19 3 39 14 44
24 6 12 17 16 30 13 14 -4 20 0 20 11 0 11 9 16 29 16 23 0 45 16 105 76 42
41 76 80 76 86 0 6 8 17 18 24 14 11 15 16 5 33 -18 29 -16 33 10 29 19 -3 22
2 25 32 2 19 9 38 15 42 8 5 13 52 16 138 2 107 0 135 -13 155 -9 13 -16 35
-16 48 0 14 -7 30 -15 37 -8 7 -15 19 -15 27 0 8 -36 50 -80 93 -60 58 -86 77
-100 73 -11 -3 -20 -12 -20 -19 0 -9 -11 -14 -27 -14 l-28 0 30 20 c42 28 39
46 -9 43 -33 -2 -36 -1 -26 12 10 12 9 16 -6 21 -11 3 -34 12 -52 20 -18 8
-39 14 -46 14 -8 0 -19 7 -26 15 -7 8 -26 15 -42 15 -16 0 -36 7 -44 15 -9 8
-29 15 -45 15 -17 0 -37 7 -45 15 -9 8 -28 15 -43 15 -16 0 -34 7 -41 15 -14
17 -66 20 -75 5 -3 -5 -13 -10 -21 -10 -8 0 -14 5 -14 10 0 6 9 10 21 10 30 0
18 24 -14 28 -14 2 -31 10 -37 18 -7 8 -20 14 -30 14 -10 0 -21 8 -24 17 -5
12 -9 14 -18 5 -20 -20 -31 -14 -24 13 6 23 4 24 -22 19 -21 -4 -31 -2 -35 10
-3 8 -2 18 2 21 5 3 11 -2 15 -10 3 -8 10 -15 16 -15 15 0 12 26 -5 40 -18 15
-21 140 -4 173 19 36 73 87 92 87 19 0 23 16 5 22 -6 2 33 2 87 0 64 -2 106
-8 119 -18 11 -8 28 -14 38 -14 9 0 22 -8 27 -17 10 -17 12 -17 24 -1 9 11 18
14 28 8 12 -8 11 -12 -6 -24 -19 -14 -19 -15 16 -48 29 -28 35 -40 32 -64 l-5
-29 244 0 243 0 2 45 c1 25 -5 58 -13 74 -8 16 -14 39 -14 52 0 12 -7 29 -15
38 -8 8 -15 19 -15 24 0 5 -7 15 -15 22 -8 7 -15 19 -15 27 0 15 -55 73 -70
73 -6 0 -10 6 -10 13 0 14 -52 57 -70 57 -5 0 -10 5 -10 10 0 6 -9 10 -20 10
-10 0 -24 9 -30 20 -6 12 -21 20 -35 20 -14 0 -25 4 -25 9 0 4 -21 11 -46 15
-26 3 -53 11 -60 17 -22 18 -370 39 -386 24z m294 -107 c-9 -9 -15 -9 -24 0
-9 9 -7 12 12 12 19 0 21 -3 12 -12z m-634 -84 c-2 -9 -13 -23 -25 -32 -22
-14 -23 -13 -23 11 0 14 6 28 13 30 24 10 38 7 35 -9z m-78 -64 c0 -5 -7 -10
-15 -10 -8 0 -15 5 -15 10 0 6 7 10 15 10 8 0 15 -4 15 -10z m1020 -35 c19
-23 8 -25 -14 -4 -11 11 -15 19 -9 19 6 0 16 -7 23 -15z m170 -140 c0 -8 -7
-15 -15 -15 -16 0 -20 12 -8 23 11 12 23 8 23 -8z m50 -54 c0 -12 -29 -23 -42
-15 -6 4 -5 10 3 15 18 11 39 11 39 0z m-1320 -168 c0 -13 -3 -13 -15 -3 -8 7
-12 16 -9 21 8 13 24 1 24 -18z m421 -116 c-13 -13 -26 -3 -16 12 3 6 11 8 17
5 6 -4 6 -10 -1 -17z m99 -18 c0 -5 -7 -9 -15 -9 -15 0 -20 12 -9 23 8 8 24
-1 24 -14z m-272 -136 c-2 -10 -14 -19 -26 -21 -22 -3 -23 -3 -5 17 21 26 36
27 31 4z m652 8 c0 -5 17 -12 37 -16 27 -5 33 -9 22 -16 -17 -11 -46 -2 -78
22 -23 19 -23 19 -2 19 11 0 21 -4 21 -9z m-706 -66 c3 -8 14 -15 25 -15 19 0
38 -17 28 -26 -6 -6 -87 38 -87 48 0 14 28 9 34 -7z m729 -25 c-14 -6 -32 -6
-45 0 -19 7 -15 9 22 9 37 0 41 -2 23 -9z m179 -92 c-9 -9 -15 -9 -24 0 -9 9
-7 12 12 12 19 0 21 -3 12 -12z m222 -110 c-18 -28 -38 -47 -47 -41 -4 3 2 16
14 29 23 25 46 33 33 12z m-444 -63 c0 -8 -6 -15 -14 -15 -17 0 -28 14 -19 24
12 12 33 6 33 -9z m90 -15 c0 -11 -4 -20 -10 -20 -5 0 -10 9 -10 20 0 11 5 20
10 20 6 0 10 -9 10 -20z m352 -42 c-9 -9 -12 -7 -12 12 0 19 3 21 12 12 9 -9
9 -15 0 -24z m8 -104 c0 -8 5 -14 10 -14 6 0 10 -15 10 -32 l0 -33 -20 33
c-21 34 -27 78 -10 67 6 -3 10 -13 10 -21z m-1380 -49 c0 -8 -4 -15 -9 -15
-13 0 -22 16 -14 24 11 11 23 6 23 -9z m420 -62 c0 -10 -20 -40 -20 -31 0 3
-3 13 -6 22 -4 11 -1 16 10 16 9 0 16 -3 16 -7z m80 -104 c12 -22 8 -35 -8
-25 -13 8 -22 46 -11 46 4 0 13 -9 19 -21z m-150 -40 c0 -11 -4 -17 -10 -14
-5 3 -10 13 -10 21 0 8 5 14 10 14 6 0 10 -9 10 -21z m968 -31 c-6 -18 -28
-21 -28 -4 0 9 7 16 16 16 9 0 14 -5 12 -12z m-493 -38 c-27 -12 -35 -12 -35
0 0 6 12 10 28 9 24 0 25 -1 7 -9z m-285 -60 c0 -5 -7 -10 -15 -10 -8 0 -15 5
-15 10 0 6 7 10 15 10 8 0 15 -4 15 -10z m653 -16 c11 -11 -3 -24 -18 -18 -8
4 -12 10 -9 15 6 11 18 12 27 3z m-893 -34 c0 -5 -7 -10 -15 -10 -8 0 -15 5
-15 10 0 6 7 10 15 10 8 0 15 -4 15 -10z m760 -30 c0 -5 -9 -10 -21 -10 -11 0
-17 5 -14 10 3 6 13 10 21 10 8 0 14 -4 14 -10z m-542 -7 c-10 -2 -28 -2 -40
0 -13 2 -5 4 17 4 22 1 32 -1 23 -4z"/>
<path d="M4181 6115 c-18 -8 -48 -15 -65 -15 -17 0 -40 -6 -51 -14 -11 -7 -33
-16 -48 -20 -20 -5 -27 -11 -23 -22 4 -11 0 -13 -19 -8 -32 8 -50 -3 -34 -22
15 -18 3 -32 -13 -16 -17 17 -48 15 -54 -3 -4 -8 -10 -15 -15 -15 -13 0 -68
-39 -96 -67 -12 -13 -24 -23 -27 -23 -10 0 -46 -34 -46 -44 0 -5 7 -14 16 -20
14 -11 14 -13 0 -25 -14 -12 -16 -10 -16 8 0 11 -4 21 -10 21 -16 0 -59 -50
-77 -90 -3 -8 -12 -19 -20 -23 -7 -4 -13 -14 -13 -21 0 -8 -7 -19 -16 -27 -9
-7 -14 -22 -11 -35 2 -15 -1 -21 -12 -20 -23 2 -27 -43 -4 -59 16 -13 16 -14
1 -15 -9 0 -18 5 -20 12 -9 26 -30 -5 -25 -37 4 -24 0 -36 -14 -48 -14 -13
-19 -30 -19 -71 0 -35 -5 -56 -12 -58 -10 -4 -14 -49 -16 -172 -3 -144 -1
-179 18 -259 12 -51 25 -99 30 -107 4 -9 11 -31 15 -50 4 -19 11 -41 15 -50 4
-8 16 -33 26 -55 44 -93 162 -245 191 -245 7 0 13 -4 13 -10 0 -11 49 -63 70
-73 33 -17 63 -36 69 -44 9 -12 71 -43 87 -43 8 0 14 -4 14 -10 0 -5 15 -10
33 -10 21 0 36 -7 45 -20 13 -21 75 -29 87 -10 3 6 17 10 31 10 13 0 24 -4 24
-10 0 -5 -9 -10 -21 -10 -12 0 -19 -5 -16 -12 2 -9 26 -13 68 -14 35 -1 84 -6
109 -12 56 -14 140 -15 174 -2 15 5 56 10 94 11 37 1 76 4 86 7 20 4 20 5 0
19 -17 14 -15 15 31 9 40 -5 59 -2 90 14 22 11 45 20 52 20 7 0 13 4 13 9 0 4
21 16 48 26 26 10 51 24 55 32 4 7 13 13 19 13 52 0 328 313 328 372 0 9 7 19
16 22 10 4 14 15 12 33 -2 17 4 35 15 46 15 15 17 41 17 242 l0 225 -512 -2
-513 -3 0 -150 0 -150 300 -2 300 -2 17 -23 c9 -13 24 -31 33 -41 24 -27 13
-31 -14 -6 -19 18 -25 19 -32 8 -5 -8 -9 -19 -9 -26 0 -21 -38 -86 -73 -125
-11 -11 -17 -28 -14 -38 3 -13 0 -17 -9 -13 -21 8 -75 -42 -61 -56 8 -8 3 -11
-21 -11 -18 0 -32 -4 -32 -10 0 -5 -11 -10 -24 -10 -13 0 -29 -7 -36 -15 -7
-8 -24 -15 -39 -15 -14 0 -39 -7 -55 -15 -39 -21 -213 -21 -252 0 -16 8 -44
15 -62 15 -18 0 -41 7 -49 16 -12 11 -27 14 -52 10 -22 -3 -31 -2 -22 3 19 12
3 34 -20 28 -11 -3 -19 0 -19 6 0 7 -16 23 -35 37 -34 25 -105 112 -105 129 0
4 -7 14 -15 21 -8 7 -15 20 -15 30 0 10 -7 23 -15 30 -8 7 -15 23 -15 35 0 32
-10 55 -24 55 -17 0 -8 324 10 369 8 18 14 44 14 56 0 24 25 78 48 103 6 7 12
18 12 24 0 18 169 178 189 178 10 0 24 7 31 15 7 8 24 15 39 15 14 0 39 7 55
15 40 21 233 21 283 0 20 -9 42 -14 49 -11 7 3 20 -4 30 -15 9 -10 25 -19 34
-19 10 0 21 -7 24 -16 4 -10 14 -14 25 -11 14 3 17 0 14 -14 -4 -12 0 -19 9
-19 8 0 29 -20 48 -45 l33 -44 254 -1 c229 0 285 5 238 24 -9 3 -15 18 -15 36
0 17 -7 38 -15 46 -8 8 -12 20 -9 27 2 7 -4 22 -16 32 -11 10 -20 27 -20 38 0
12 -5 17 -14 14 -10 -4 -12 0 -9 14 3 11 -1 21 -11 25 -9 3 -16 15 -16 26 0
17 -5 19 -26 14 -22 -6 -25 -4 -19 13 3 12 -1 28 -12 41 -20 24 -128 110 -138
110 -8 0 -68 42 -76 54 -4 4 -15 5 -26 2 -13 -4 -26 1 -38 14 -10 11 -26 20
-35 20 -9 0 -25 7 -36 15 -10 8 -37 15 -60 15 -22 0 -46 6 -52 13 -21 20 -456
22 -501 2z m539 -51 c0 -2 -12 -4 -26 -4 -14 0 -23 4 -20 9 6 8 46 4 46 -5z
m85 -25 c10 -14 1 -21 -19 -13 -9 3 -13 10 -10 15 7 12 21 11 29 -2z m-85
-304 c0 -8 -4 -15 -10 -15 -5 0 -10 7 -10 15 0 8 5 15 10 15 6 0 10 -7 10 -15z
m258 -34 c8 -5 12 -15 10 -24 -2 -12 -7 -10 -21 9 -18 24 -13 31 11 15z m-938
-78 c0 -9 -45 -53 -54 -53 -12 0 -6 20 12 39 17 19 42 27 42 14z m845 -53 c18
-19 17 -20 -3 -20 -15 0 -22 6 -22 20 0 11 2 20 3 20 2 0 12 -9 22 -20z
m-1000 -90 c8 -26 -4 -48 -16 -29 -12 19 -11 49 0 49 5 0 12 -9 16 -20z m-5
-141 c0 -11 -4 -17 -10 -14 -5 3 -10 13 -10 21 0 8 5 14 10 14 6 0 10 -9 10
-21z m550 -173 c0 -8 -4 -17 -9 -21 -12 -7 -24 12 -16 25 9 15 25 12 25 -4z
m510 -181 c0 -8 -7 -15 -15 -15 -8 0 -15 7 -15 15 0 8 7 15 15 15 8 0 15 -7
15 -15z m-1030 -268 c0 -7 -9 -18 -20 -25 -17 -11 -20 -10 -20 7 0 17 11 28
33 30 4 1 7 -5 7 -12z m70 -2 c0 -8 -4 -15 -9 -15 -13 0 -22 16 -14 24 11 11
23 6 23 -9z m921 -88 c-1 -12 -15 -9 -19 4 -3 6 1 10 8 8 6 -3 11 -8 11 -12z
m-1251 -85 c0 -13 -12 -22 -22 -16 -10 6 -1 24 13 24 5 0 9 -4 9 -8z m1544 -1
c3 -5 -1 -12 -10 -15 -22 -9 -24 -8 -24 9 0 16 25 21 34 6z m-140 -46 c-4 -8
-10 -15 -15 -15 -5 0 -9 7 -9 15 0 8 7 15 15 15 9 0 12 -6 9 -15z m46 -75 c12
-8 11 -10 -7 -10 -13 0 -23 5 -23 10 0 13 11 13 30 0z m-1142 -152 c-6 -18
-28 -21 -28 -4 0 9 7 16 16 16 9 0 14 -5 12 -12z m892 -9 c0 -5 -7 -9 -15 -9
-15 0 -20 12 -9 23 8 8 24 -1 24 -14z"/>
<path d="M5707 5704 c-4 -4 -7 -357 -7 -786 l0 -778 224 0 224 0 1 373 c0 204
3 402 7 439 5 46 3 72 -5 81 -8 10 -8 22 -2 38 9 23 10 23 10 2 1 -35 21 -37
27 -3 8 39 54 87 125 129 22 14 105 31 157 32 12 1 22 5 22 11 0 5 19 9 43 8
23 -1 57 -1 75 -1 l32 1 -1 213 c0 116 2 220 6 230 6 15 0 17 -53 17 -41 0
-66 -5 -76 -15 -8 -8 -26 -15 -40 -15 -13 0 -31 -7 -40 -15 -8 -8 -24 -15 -35
-15 -25 0 -28 -15 -4 -24 11 -5 13 -10 6 -17 -8 -8 -17 -7 -32 1 -25 13 -45 4
-37 -16 3 -8 0 -11 -8 -8 -7 3 -28 -12 -47 -32 -19 -20 -42 -43 -51 -52 -10
-9 -18 -22 -18 -29 0 -7 -8 -13 -18 -13 -10 0 -23 -5 -30 -12 -8 -8 -15 -8
-27 2 -19 16 -20 40 0 40 19 0 21 60 3 78 -9 9 -9 15 0 24 20 20 14 48 -10 48
l-22 0 23 21 c43 40 27 44 -200 47 -118 2 -218 0 -222 -4z m313 -94 c0 -5 -7
-10 -15 -10 -8 0 -15 5 -15 10 0 6 7 10 15 10 8 0 15 -4 15 -10z m60 -65 c12
-14 6 -35 -9 -35 -4 0 -13 11 -19 25 -9 20 -9 25 2 25 7 0 19 -7 26 -15z m123
-151 c-7 -18 -33 -18 -33 -1 0 19 10 27 25 20 8 -2 11 -11 8 -19z m-148 -29
c0 -10 -6 -20 -12 -22 -8 -3 -13 5 -13 22 0 17 5 25 13 23 6 -3 12 -13 12 -23z
m159 -53 c-6 -4 -14 -16 -18 -27 -6 -13 -10 -16 -13 -7 -6 15 14 42 31 42 8 0
8 -3 0 -8z m-138 -1051 c-4 -5 -13 -8 -22 -4 -11 4 -12 8 -3 20 14 16 36 2 25
-16z"/>
<path d="M7348 5703 c-10 -3 -18 -10 -18 -16 0 -8 -13 -11 -40 -9 -30 3 -41 0
-46 -12 -3 -9 -13 -16 -21 -16 -21 0 -75 -31 -91 -52 -7 -10 -20 -18 -28 -18
-8 0 -14 -7 -14 -15 0 -8 -6 -15 -13 -15 -8 0 -22 -9 -33 -21 -16 -17 -16 -22
-4 -29 10 -6 11 -10 3 -10 -21 0 -83 -61 -83 -81 0 -11 -7 -22 -15 -25 -8 -4
-15 -12 -15 -19 0 -7 -8 -28 -17 -47 -29 -58 -32 -65 -39 -104 -4 -22 -13 -52
-21 -67 -19 -39 -17 -428 3 -454 7 -10 14 -32 14 -49 0 -17 9 -43 21 -58 11
-14 17 -31 14 -36 -4 -6 0 -22 9 -35 9 -13 16 -31 16 -39 0 -7 7 -16 15 -20 8
-3 15 -14 15 -24 0 -10 20 -39 45 -65 25 -27 45 -51 45 -55 0 -17 40 -40 59
-35 17 4 21 1 21 -21 0 -16 6 -26 14 -26 8 0 16 -7 20 -15 3 -8 11 -15 19 -15
7 0 40 -13 72 -30 33 -17 74 -30 95 -30 20 0 41 -5 48 -12 15 -15 225 -16 244
0 7 6 33 12 57 14 46 3 66 22 34 31 -10 3 -2 3 18 1 25 -4 46 1 72 16 20 12
37 26 37 31 0 5 6 9 13 9 6 0 40 30 74 66 90 96 101 85 93 -94 l-2 -62 221 2
221 3 3 783 2 782 -222 0 -223 0 0 -103 c0 -69 4 -108 13 -116 10 -11 9 -13
-6 -7 -11 3 -30 9 -43 12 -13 3 -29 19 -36 35 -14 30 -27 36 -45 18 -11 -11
-63 -2 -63 10 0 4 13 6 29 3 16 -2 31 1 35 6 7 12 -80 72 -103 72 -9 0 -24 9
-34 20 -9 11 -26 20 -38 20 -11 0 -27 6 -35 14 -11 11 -49 14 -181 14 -93 -1
-176 -3 -185 -5z m48 -62 c-3 -5 -15 -7 -26 -4 -28 7 -25 13 6 13 14 0 23 -4
20 -9z m-81 -31 c-3 -5 -13 -10 -21 -10 -8 0 -14 5 -14 10 0 6 9 10 21 10 11
0 17 -4 14 -10z m-169 -57 c-11 -11 -17 4 -9 23 7 18 8 18 11 1 2 -10 1 -21
-2 -24z m957 7 c14 0 18 -3 11 -10 -16 -16 -44 0 -43 24 1 16 2 17 6 4 2 -10
14 -18 26 -18z m-273 -40 c0 -5 -6 -10 -14 -10 -8 0 -18 5 -21 10 -3 6 3 10
14 10 12 0 21 -4 21 -10z m-75 -80 c4 -6 -6 -10 -22 -9 -25 0 -26 1 -8 9 11 5
21 9 22 9 1 1 5 -3 8 -9z m150 1 c7 -12 -31 -25 -46 -15 -8 4 -7 9 2 15 18 11
36 11 44 0z m-278 -12 c-14 -8 -22 -8 -30 0 -8 8 -3 11 19 11 25 -1 27 -2 11
-11z m63 -49 c0 -5 -10 -10 -22 -10 -19 0 -20 2 -8 10 19 13 30 13 30 0z m70
-44 c0 -15 21 -26 50 -26 10 0 20 -7 24 -15 3 -8 13 -15 21 -15 21 0 112 -95
136 -142 10 -21 19 -48 19 -60 1 -13 7 -34 15 -48 16 -28 21 -195 6 -204 -5
-4 -12 -25 -16 -48 -4 -23 -17 -60 -28 -81 -23 -44 -92 -120 -119 -130 -10 -3
-18 -11 -18 -17 0 -5 -9 -10 -21 -10 -11 0 -31 -8 -44 -18 -19 -15 -39 -18
-122 -16 -89 2 -103 5 -158 35 -33 17 -70 41 -83 53 -32 30 -92 114 -92 129 0
7 -7 22 -15 33 -20 29 -27 321 -8 328 7 3 13 17 13 30 0 15 8 30 21 36 23 13
20 36 -5 32 -9 -2 -16 4 -16 14 0 12 6 15 27 11 21 -4 35 2 60 26 18 17 33 37
33 44 0 7 9 13 20 13 11 0 28 4 38 9 69 34 95 41 157 44 39 2 78 4 88 5 9 1
17 -4 17 -12z m-550 -171 c0 -8 -4 -15 -10 -15 -5 0 -10 7 -10 15 0 8 5 15 10
15 6 0 10 -7 10 -15z m98 -6 c-2 -6 -8 -10 -13 -10 -5 0 -11 4 -13 10 -2 6 4
11 13 11 9 0 15 -5 13 -11z m-58 -441 c0 -5 -7 -8 -15 -8 -15 0 -20 21 -8 33
7 7 23 -11 23 -25z m832 -110 c-10 -22 -11 -21 -11 12 -1 26 2 31 11 22 8 -8
8 -17 0 -34z m-926 -164 c-5 -13 -10 -14 -18 -6 -6 6 -8 18 -4 28 5 13 10 14
18 6 6 -6 8 -18 4 -28z m-53 -60 c-9 -23 -23 -16 -23 12 0 22 2 24 14 14 8 -6
12 -18 9 -26z m102 -144 c3 -5 -3 -10 -14 -10 -12 0 -21 5 -21 10 0 6 6 10 14
10 8 0 18 -4 21 -10z m100 1 c7 -12 -12 -24 -25 -16 -11 7 -4 25 10 25 5 0 11
-4 15 -9z m506 -1 c6 0 7 -4 4 -10 -10 -16 -45 -12 -45 6 0 11 5 14 16 10 9
-3 20 -6 25 -6z m337 -2 c-6 -18 -28 -21 -28 -4 0 9 7 16 16 16 9 0 14 -5 12
-12z m-812 -44 c-3 -9 -6 -18 -6 -20 0 -2 -10 -4 -22 -4 -21 0 -21 0 -2 19 23
24 38 27 30 5z"/>
</g>
</svg>
